<?xml version="1.0" encoding="utf-8"?>
<!-- Generator: Adobe Illustrator 21.1.0, SVG Export Plug-In . SVG Version: 6.00 Build 0)  -->
<svg version="1.1" id="Layer_1" xmlns="http://www.w3.org/2000/svg" xmlns:xlink="http://www.w3.org/1999/xlink" x="0px" y="0px"
	 viewBox="0 0 492.7 336.5" style="enable-background:new 0 0 492.7 336.5;" xml:space="preserve">
<style type="text/css">
	.st0{fill:#010002;}
</style>
<symbol  id="github" viewBox="-32 -31.2 64 62.4">
	<g>
		<path d="M27.7,15.3c-2.9,4.9-6.7,8.8-11.6,11.6C11.2,29.8,5.8,31.2,0,31.2c-5.8,0-11.2-1.4-16.1-4.3c-4.9-2.9-8.8-6.7-11.6-11.6
			C-30.6,10.4-32,5-32-0.8c0-7,2-13.2,6.1-18.8c4.1-5.6,9.3-9.4,15.8-11.6c0.8-0.1,1.3,0,1.7,0.3c0.4,0.3,0.5,0.8,0.5,1.2
			c0,0.1,0,0.8,0,2.2c0,1.4,0,2.7,0,3.7l-1-0.2c-0.6-0.1-1.4-0.2-2.3-0.1c-0.9,0-1.9,0.1-2.9,0.3c-1,0.2-1.9,0.6-2.8,1.2
			c-0.9,0.7-1.5,1.5-1.8,2.6l-0.4,1c-0.3,0.6-0.7,1.3-1.3,2.1c-0.6,0.8-1.2,1.3-1.8,1.6l-0.3,0.2c-0.2,0.1-0.4,0.3-0.5,0.5
			c-0.2,0.2-0.3,0.4-0.4,0.6c-0.1,0.2,0,0.4,0.2,0.5c0.2,0.1,0.6,0.2,1.2,0.2l0.8-0.1c0.6-0.1,1.2-0.4,2.1-1c0.8-0.6,1.5-1.3,2-2.2
			c0.6-1.1,1.4-2,2.3-2.6C-14-19.7-13-20-12.1-20s1.7,0.1,2.4,0.2c0.7,0.1,1.3,0.3,1.9,0.6c0.2,1.9,0.9,3.3,2,4.3
			c-1.6,0.2-3,0.4-4.3,0.8c-1.3,0.3-2.6,0.9-3.9,1.6c-1.3,0.7-2.5,1.7-3.4,2.8c-0.9,1.1-1.6,2.6-2.2,4.4c-0.6,1.8-0.9,3.9-0.9,6.2
			c0,3.4,1.1,6.2,3.3,8.6c-1,2.5-0.9,5.4,0.3,8.5c0.8,0.3,2,0.1,3.6-0.6c1.6-0.6,2.7-1.2,3.5-1.6C-9,15.4-8.4,15-8,14.7
			c2.6,0.7,5.3,1.1,8,1.1s5.4-0.4,8-1.1l1.6,1c1.1,0.7,2.4,1.3,3.8,1.8c1.5,0.6,2.6,0.7,3.4,0.5c1.2-3.1,1.4-6,0.3-8.5
			c2.2-2.4,3.3-5.2,3.3-8.6c0-2.4-0.3-4.5-0.9-6.3c-0.6-1.8-1.3-3.3-2.2-4.4c-0.9-1.1-2-2-3.4-2.8c-1.3-0.8-2.7-1.3-3.9-1.6
			c-1.3-0.3-2.7-0.6-4.3-0.8C7.2-16.2,8-18.1,8-20.8v-8.8c0-0.5,0.2-0.9,0.5-1.2c0.3-0.3,0.9-0.4,1.6-0.3c6.4,2.1,11.7,6,15.8,11.6
			C30-14,32-7.8,32-0.8C32,5,30.6,10.4,27.7,15.3z"/>
	</g>
</symbol>
<symbol  id="telegram" viewBox="-32 -27.9 64 55.7">
	<g id="XMLID_1_">
		<path id="XMLID_2_" d="M-30.9,1.1l14.7-5.5l5.7-18.4c0.4-1.2,1.8-1.6,2.8-0.8l8.2,6.7c0.9,0.7,2.1,0.7,3,0.1l14.8-10.8
			c1-0.7,2.5-0.2,2.7,1.1L32,25.8c0.3,1.3-1,2.5-2.3,2L-30.9,4.4C-32.4,3.8-32.4,1.7-30.9,1.1z M-11.3-1.4l28.8,17.8
			c0.5,0.3,1.1-0.4,0.6-0.8L-5.7-6.6c-0.8-0.8-1.4-1.8-1.5-3l-0.8-6c-0.1-0.8-1.2-0.9-1.5-0.1l-3.1,10.9C-13-3.4-12.4-2.1-11.3-1.4z
			"/>
	</g>
</symbol>
<symbol  id="twitter" viewBox="-32 -26 64 52">
	<g>
		<g>
			<path class="st0" d="M32,19.8c-2.4-1-4.9-1.8-7.5-2.1c2.7,1.6,4.8,4.2,5.8,7.3c-2.5-1.5-5.4-2.6-8.3-3.2
				c-2.4,2.6-5.8,4.1-9.6,4.1C5.1,26-0.8,20.1-0.8,12.9c0-1,0.1-2,0.3-3c-10.9,0.5-20.6,5.8-27.1,13.7c-1.1-1.9-1.8-4.2-1.8-6.6
				c0-4.6,2.3-8.6,5.8-10.9c-2.2,0.1-4.2,0.7-5.9,1.6V7.6c0-6.4,4.5-11.7,10.5-12.9c-1.1-0.3-2.3-0.5-3.5-0.5
				c-0.8,0-1.7,0.1-2.5,0.2c1.7-5.2,6.5-9,12.3-9.1c-4.5-3.5-10.2-5.6-16.3-5.6c-1.1,0-2.1,0.1-3.1,0.2c5.8-3.7,12.7-5.9,20.1-5.9
				c24.2,0,37.4,20,37.4,37.4l0,1.7C28,14.9,30.2,17.2,32,19.8z"/>
		</g>
	</g>
</symbol>
<use xlink:href="#twitter"  width="64" height="52" x="-32" y="-26" transform="matrix(1 0 0 -1 48.7313 43.3957)" style="overflow:visible;"/>
<use xlink:href="#github"  width="64" height="62.4" x="-32" y="-31.2" transform="matrix(1 0 0 -1 246.3462 45.2639)" style="overflow:visible;"/>
<use xlink:href="#telegram"  width="64" height="55.7" x="-32" y="-27.9" transform="matrix(1 0 0 -1 143.0549 45.2639)" style="overflow:visible;"/>
</svg>
