<!-- Generator: Adobe Illustrator 21.1.0, SVG Export Plug-In  -->
<svg version="1.1"
	 xmlns="http://www.w3.org/2000/svg" xmlns:xlink="http://www.w3.org/1999/xlink" xmlns:a="http://ns.adobe.com/AdobeSVGViewerExtensions/3.0/"
	 x="0px" y="0px" width="180px" height="180px" viewBox="0 0 180 180" style="overflow:scroll;enable-background:new 0 0 180 180;"
	 xml:space="preserve">
<style type="text/css">
	.st0{fill:#FFFFFF;}
</style>
<defs>
</defs>
<path class="st0" d="M90,0C40.5,0,0.4,39.9,0,89.3c20.3-28.4,46.1-42,53.7-45.7c0.7-10.5,9.4-19,20.3-19c11.3,0,20.3,9,20.3,20.3
	s-9,20.3-20.3,20.3c-5.9,0-11.3-2.5-14.9-6.6c-37.8,25.5-43,66-43.6,82c3.9,5.8,8.4,11,13.5,15.6c26.4-57.2,79.7-73.7,88.2-75.9
	c0.3-10.8,9.3-19.5,20.3-19.5c11.3,0,20.3,9,20.3,20.3s-9,20.3-20.3,20.3c-5.9,0-11.3-2.5-14.9-6.6c-50.6,21.2-59.1,71.9-60.2,81.1
	c8.7,2.8,18,4.4,27.7,4.4c49.6,0,90-40.4,90-90S139.6,0,90,0z"/>
</svg>
