<?xml version="1.0" encoding="utf-8"?>
<!-- Generator: Adobe Illustrator 21.0.0, SVG Export Plug-In . SVG Version: 6.00 Build 0)  -->
<svg version="1.1" id="logo" xmlns="http://www.w3.org/2000/svg" xmlns:xlink="http://www.w3.org/1999/xlink" x="0px" y="0px"
	 viewBox="0 0 47.1 40.3" style="enable-background:new 0 0 47.1 40.3;" xml:space="preserve">
<style type="text/css">
	.st0{fill:#D82022;}
</style>
<g id="red">
	<path id="bottom" class="st0" d="M12.1,30.6H5.2c-2.5,0-4.5,2-4.5,4.5s2,4.5,4.5,4.5h6.9c2.5,0,4.5-2,4.5-4.5
		C16.7,32.6,14.6,30.6,12.1,30.6z"/>
	<path id="middle" class="st0" d="M24.6,15.6H5.2c-2.5,0-4.5,2-4.5,4.5s2,4.5,4.5,4.5h19.4c2.5,0,4.5-2,4.5-4.5
		C29.2,17.6,27.1,15.6,24.6,15.6z"/>
	<path id="top" class="st0" d="M41.8,0.6H5.2c-2.5,0-4.5,2-4.5,4.5s2,4.5,4.5,4.5h36.6c2.5,0,4.5-2,4.5-4.5S44.3,0.6,41.8,0.6z"/>
</g>
</svg>
