<!-- Generator: Adobe Illustrator 21.1.0, SVG Export Plug-In  -->
<svg version="1.1"
	 xmlns="http://www.w3.org/2000/svg" xmlns:xlink="http://www.w3.org/1999/xlink" xmlns:a="http://ns.adobe.com/AdobeSVGViewerExtensions/3.0/"
	 x="0px" y="0px" width="53.8px" height="53.8px" viewBox="0 0 53.8 53.8"
	 style="overflow:scroll;enable-background:new 0 0 53.8 53.8;" xml:space="preserve">
<style type="text/css">
	.st0{fill:#239FFF;}
</style>
<defs>
</defs>
<path class="st0" d="M26.8,20.4c-1.9,0-3.4-1.6-3.4-3.6V3.6c0-2,1.5-3.6,3.4-3.6s3.5,1.6,3.5,3.6v13.2
	C30.3,18.8,28.6,20.5,26.8,20.4L26.8,20.4z M35,26.7c-0.5-1.9,0.4-4,2.2-4.5L49.2,18c1.8-0.6,3.8,0.4,4.4,2.3
	c0.5,1.9-0.4,3.9-2.2,4.5L39.4,29C37.6,29.6,35.6,28.6,35,26.7z M10.4,53.1c-1.5-1.1-1.9-3.4-0.7-5l7.4-10.5c1.1-1.5,3.3-2,4.8-0.7
	c1.5,1.1,1.9,3.4,0.8,5l-7.4,10.5C14.2,53.9,12,54.3,10.4,53.1L10.4,53.1z M43.6,53.1c-1.5,1.1-3.7,0.9-4.8-0.8l-7.4-10.8
	c-1.1-1.7-0.8-4,0.8-5.1c1.6-1.1,3.7-0.9,4.9,0.7l7.5,10.7c1.1,1.6,0.8,3.8-0.7,5L43.6,53.1z M18.8,26.6c-0.6,1.8-2.6,2.8-4.4,2.3
	l-12.1-4c-1.8-0.6-2.8-2.7-2.2-4.5c0.5-1.9,2.5-3,4.4-2.3l12.1,4C18.4,22.7,19.4,24.7,18.8,26.6C18.8,26.6,18.8,26.6,18.8,26.6z"/>
</svg>
