<!-- Generator: Adobe Illustrator 21.1.0, SVG Export Plug-In  -->
<svg version="1.1"
	 xmlns="http://www.w3.org/2000/svg" xmlns:xlink="http://www.w3.org/1999/xlink" xmlns:a="http://ns.adobe.com/AdobeSVGViewerExtensions/3.0/"
	 x="0px" y="0px" width="20px" height="20px" viewBox="0 0 20 20" style="overflow:scroll;enable-background:new 0 0 20 20;"
	 xml:space="preserve">
<style type="text/css">
	.st0{fill:#303030;}
</style>
<defs>
</defs>
<path class="st0" d="M6,16c-1.1,0-2,0.9-2,2s0.9,2,2,2s2-0.9,2-2S7.1,16,6,16z M0,0v2h2l3.6,7.6L4.3,12C4.1,12.3,4,12.6,4,13
	c0,1.1,0.9,2,2,2h12v-2H6.4c-0.1,0-0.3-0.1-0.3-0.3l0-0.1L7.1,11h7.4c0.7,0,1.4-0.4,1.7-1l3.6-6.5C20,3.3,20,3.2,20,3
	c0-0.6-0.5-1-1-1H4.2L3.3,0C3.3,0,0,0,0,0z M16,16c-1.1,0-2,0.9-2,2s0.9,2,2,2s2-0.9,2-2S17.1,16,16,16z"/>
</svg>
