<!-- Generator: Adobe Illustrator 21.1.0, SVG Export Plug-In  -->
<svg version="1.1"
	 xmlns="http://www.w3.org/2000/svg" xmlns:xlink="http://www.w3.org/1999/xlink" xmlns:a="http://ns.adobe.com/AdobeSVGViewerExtensions/3.0/"
	 x="0px" y="0px" width="18px" height="18px" viewBox="0 0 18 18" style="overflow:scroll;enable-background:new 0 0 18 18;"
	 xml:space="preserve">
<style type="text/css">
	.st0{fill:#FFFFFF;}
</style>
<defs>
</defs>
<path class="st0" d="M0,2v14c0,1.1,0.9,2,2,2h14c1.1,0,2-0.9,2-2V2c0-1.1-0.9-2-2-2H2C0.9,0,0,0.9,0,2z M12,6c0,1.7-1.3,3-3,3
	S6,7.7,6,6s1.3-3,3-3S12,4.3,12,6z M3,14c0-2,4-3.1,6-3.1s6,1.1,6,3.1v1H3V14z"/>
</svg>
