<!-- Generator: Adobe Illustrator 21.1.0, SVG Export Plug-In  -->
<svg version="1.1"
	 xmlns="http://www.w3.org/2000/svg" xmlns:xlink="http://www.w3.org/1999/xlink" xmlns:a="http://ns.adobe.com/AdobeSVGViewerExtensions/3.0/"
	 x="0px" y="0px" width="53.8px" height="53.8px" viewBox="0 0 53.8 53.8"
	 style="overflow:scroll;enable-background:new 0 0 53.8 53.8;" xml:space="preserve">
<style type="text/css">
	.st0{fill:#FFCC00;}
</style>
<defs>
</defs>
<path class="st0" d="M26.9,0C12.1,0,0.1,11.9,0,26.7C6,18.2,13.8,14.1,16,13c0.2-3.2,2.8-5.7,6-5.7c3.4,0,6,2.7,6,6s-2.7,6-6,6
	c-1.8,0-3.4-0.8-4.5-2C6.3,25.1,4.8,37.2,4.6,42c1.2,1.7,2.5,3.3,4,4.7c7.9-17.1,23.8-22,26.3-22.7c0.1-3.2,2.8-5.8,6-5.8
	c3.4,0,6,2.7,6,6s-2.7,6-6,6c-1.8,0-3.4-0.8-4.5-2c-15.1,6.3-17.6,21.5-18,24.2c2.6,0.8,5.4,1.3,8.3,1.3c14.8,0,26.9-12.1,26.9-26.9
	S41.7,0,26.9,0z"/>
</svg>
