<!-- Generator: Adobe Illustrator 21.1.0, SVG Export Plug-In  -->
<svg version="1.1"
	 xmlns="http://www.w3.org/2000/svg" xmlns:xlink="http://www.w3.org/1999/xlink" xmlns:a="http://ns.adobe.com/AdobeSVGViewerExtensions/3.0/"
	 x="0px" y="0px" width="18px" height="18px" viewBox="0 0 18 18" style="overflow:scroll;enable-background:new 0 0 18 18;"
	 xml:space="preserve">
<style type="text/css">
	.st0{fill:#303030;}
</style>
<defs>
</defs>
<path class="st0" d="M3.6,7.8c1.4,2.8,3.8,5.1,6.6,6.6l2.2-2.2c0.3-0.3,0.7-0.4,1-0.2c1.1,0.4,2.3,0.6,3.6,0.6c0.5,0,1,0.4,1,1V17
	c0,0.5-0.5,1-1,1C7.6,18,0,10.4,0,1c0-0.5,0.5-1,1-1h3.5c0.6,0,1,0.5,1,1c0,1.3,0.2,2.4,0.6,3.6c0.1,0.3,0,0.7-0.3,1L3.6,7.8z"/>
</svg>
