<!-- Generator: Adobe Illustrator 21.1.0, SVG Export Plug-In  -->
<svg version="1.1"
	 xmlns="http://www.w3.org/2000/svg" xmlns:xlink="http://www.w3.org/1999/xlink" xmlns:a="http://ns.adobe.com/AdobeSVGViewerExtensions/3.0/"
	 x="0px" y="0px" width="257.5px" height="54.6px" viewBox="0 0 257.5 54.6"
	 style="overflow:scroll;enable-background:new 0 0 257.5 54.6;" xml:space="preserve">
<style type="text/css">
	.st0{fill:#303030;}
</style>
<defs>
</defs>
<path class="st0" d="M87.9,14.3c-1.4-2.9-3.3-5.5-5.8-7.6c-2.5-2.1-5.4-3.8-8.7-4.9C70.1,0.6,66.4,0,62.5,0C58,0,53.7,0.8,49.9,2.4
	c-0.3,0.1-0.5,0.2-0.7,0.3l-3,13.6H34.3c-0.4,0.7-0.8,1.5-1.1,2.3c-1.6,3.7-2.4,7.7-2.4,11.9c0,3.6,0.7,6.9,2.1,9.8
	c1.4,2.9,3.3,5.5,5.8,7.6c2.5,2.1,5.4,3.8,8.7,5c3.4,1.2,7,1.8,10.9,1.8c4.6,0,8.8-0.8,12.7-2.4c3.9-1.6,7.2-3.8,10-6.6
	c2.8-2.8,5-6,6.6-9.7C89.2,32.2,90,28.3,90,24C90,20.5,89.3,17.3,87.9,14.3z M72.4,31.1c-0.7,1.8-1.7,3.5-2.9,4.9
	c-1.3,1.4-2.8,2.5-4.5,3.3c-1.7,0.8-3.7,1.2-5.8,1.2c-1.8,0-3.4-0.3-4.9-0.8c-1.5-0.5-2.7-1.3-3.7-2.3c-1-1-1.8-2.2-2.4-3.6
	c-0.6-1.4-0.9-2.9-0.9-4.5c0-2,0.3-3.9,1-5.8c0.7-1.8,1.7-3.5,2.9-4.9c1.3-1.4,2.8-2.5,4.5-3.3c1.7-0.8,3.7-1.2,5.8-1.2
	c1.8,0,3.4,0.3,4.9,0.8c1.5,0.6,2.7,1.3,3.7,2.3c1,1,1.8,2.2,2.4,3.6c0.6,1.4,0.9,2.9,0.9,4.5C73.5,27.3,73.1,29.2,72.4,31.1z"/>
<path class="st0" d="M130.3,10.4c-0.8-1.9-1.9-3.6-3.3-4.9c-1.4-1.4-3-2.5-4.9-3.3c-1.9-0.8-4-1.2-6.2-1.2H88.2l-1.9,8.4
	c1.3,1.5,2.3,3.2,3.2,5c1.4,3,2.1,6.2,2.1,9.7c0,4.2-0.8,8.2-2.4,11.9c-1.6,3.7-3.8,6.9-6.6,9.7c-1.6,1.6-3.4,3-5.3,4.1l-0.9,3.9h16
	L96.1,37h12c4.6,0,8.4-0.7,11.3-2.1c3-1.4,5.4-3.2,7.2-5.3c1.8-2.1,3-4.3,3.8-6.7c0.7-2.4,1.1-4.5,1.1-6.4
	C131.5,14.3,131.1,12.3,130.3,10.4z M113.1,21.8c-1.3,0.9-2.6,1.3-4.1,1.3h-9.7l1.8-8.3h9.6c1.4,0,2.4,0.3,3.2,0.8
	c0.8,0.6,1.2,1.4,1.2,2.6C115,19.8,114.3,21,113.1,21.8z"/>
<path class="st0" d="M171.6,9.3c-0.6-1.6-1.5-3-2.7-4.2c-1.2-1.3-2.8-2.3-4.7-3c-1.9-0.8-4.2-1.1-6.9-1.1h-29.3l-0.7,3
	c0.7,0.5,1.3,1,1.9,1.6c1.4,1.4,2.4,3,3.3,4.9c0.8,1.9,1.2,3.9,1.2,6.1c0,1.9-0.4,4-1.1,6.4c-0.7,2.4-2,4.6-3.8,6.7
	c-1.8,2.1-4.2,3.8-7.2,5.3c-0.4,0.2-0.8,0.4-1.3,0.5l-4,18.2h33.1c3.5,0,6.4-0.5,8.8-1.5c2.4-1,4.3-2.2,5.8-3.8
	c1.5-1.6,2.5-3.3,3.2-5.1c0.7-1.8,1-3.6,1-5.4c0-1.1-0.1-2.2-0.4-3.3c-0.3-1.1-0.8-2.1-1.4-3c-0.6-0.9-1.4-1.8-2.4-2.5
	c-1-0.7-2-1.3-3.3-1.6c1.6-0.2,3.1-0.6,4.5-1.4c1.4-0.8,2.7-1.8,3.8-3c1.1-1.2,2-2.6,2.6-4.2c0.7-1.6,1-3.2,1-4.9
	C172.5,12.4,172.2,10.9,171.6,9.3z M151,39.3c-0.8,0.7-1.9,1-3.3,1h-12.6l1.5-6.7h12.6c0.9,0,1.6,0.3,2.2,0.8
	c0.6,0.5,0.8,1.3,0.8,2.2C152.2,37.7,151.8,38.6,151,39.3z M154.7,19.2c-0.5,0.8-1.6,1.1-3.1,1.1h-12l1.5-6.2h11.5
	c1,0,1.7,0.3,2.1,0.8c0.5,0.5,0.7,1.1,0.7,1.9C155.5,17.6,155.2,18.4,154.7,19.2z"/>
<path class="st0" d="M206.2,0.9l-6.8,30.7c-0.6,2.5-1.7,4.7-3.5,6.4c-1.7,1.8-4.3,2.7-7.5,2.7c-1.5,0-2.8-0.2-3.9-0.6
	c-1.1-0.4-2-1-2.7-1.7c-0.7-0.7-1.3-1.5-1.7-2.3c-0.4-0.9-0.6-1.7-0.6-2.6c0-0.7,0.1-1.4,0.2-1.9l6.8-30.7h-16.2l-0.6,3
	c0.5,0.4,1,0.8,1.4,1.2c1.2,1.3,2.1,2.7,2.7,4.2c0.6,1.6,0.9,3.1,0.9,4.7c0,1.7-0.3,3.3-1,4.9c-0.7,1.5-1.5,2.9-2.6,4.2
	c-1.1,1.2-2.3,2.2-3.8,3c-0.9,0.5-1.9,0.9-2.9,1.1l-0.2,0.8c0.7,0.3,1.3,0.7,1.8,1.1c1,0.7,1.7,1.5,2.4,2.5c0.6,1,1.1,2,1.4,3
	c0.3,1.1,0.4,2.2,0.4,3.3c0,1.7-0.3,3.5-1,5.4c-0.5,1.4-1.2,2.7-2.2,3.9c0.6,0.7,1.3,1.4,2,2c2.1,1.7,4.7,3,7.9,4s6.9,1.4,11.3,1.4
	c4.3,0,8-0.6,11-1.7c3.1-1.2,5.7-2.8,7.9-4.8c2.2-2.1,3.9-4.5,5.2-7.2s2.3-5.7,3-8.9l6.9-31H206.2z"/>
<path class="st0" d="M247.4,24.5c-1.9-1.2-3.9-2.3-6.1-3.1c-2.2-0.8-4.2-1.5-6.1-2.1c-1.9-0.6-3.5-1.2-4.7-1.7
	c-1.2-0.5-1.9-1.2-1.9-1.8c0-0.6,0.3-1.1,0.8-1.5c0.6-0.4,1.4-0.6,2.4-0.6c2.5,0,5.3,0.5,8.3,1.5c3,1,5.6,2.7,7.8,4.9l9.6-11.1
	c-2.9-2.9-6.4-5.1-10.4-6.6c-4.1-1.5-8.3-2.2-12.6-2.2c-3.8,0-7,0.5-9.8,1.6c-0.2,0.1-0.5,0.2-0.7,0.3l-6.1,27.5
	c0.2,0.1,0.4,0.3,0.6,0.4c1.9,1.3,3.9,2.3,6.1,3.1s4.2,1.5,6.1,2.1c1.9,0.6,3.4,1.2,4.7,1.7c1.2,0.5,1.9,1.2,1.9,1.9
	c0,0.5-0.3,1-1,1.5c-0.6,0.5-1.7,0.8-3.3,0.8c-1.8,0-3.6-0.2-5.3-0.6c-1.8-0.4-3.5-0.9-5.1-1.7c-1.6-0.7-3.1-1.6-4.4-2.5
	c-0.6-0.4-1.1-0.8-1.6-1.3c-0.6,2.1-1.4,4.1-2.3,6c-1.3,2.7-3,5.1-5.1,7.1c0.3,0.2,0.5,0.4,0.8,0.6c1.9,1.3,3.9,2.4,6.2,3.2
	c2.3,0.9,4.7,1.6,7.3,2.1c2.6,0.5,5.3,0.7,8.1,0.7c3.4,0,6.4-0.5,9.2-1.4c2.8-1,5.1-2.3,7-4c1.9-1.7,3.4-3.7,4.5-6
	c1-2.3,1.6-4.8,1.6-7.6c0-2.6-0.6-4.8-1.9-6.5C250.9,27.2,249.3,25.7,247.4,24.5z"/>
<polygon class="st0" points="47.3,1 44.2,14.9 30.1,14.9 21.6,53.7 5.6,53.7 14.2,14.9 0,14.9 3.1,1 "/>
<path class="st0" d="M35.1,14.8c-0.2,0.3-0.4,0.6-0.5,0.9"/>
</svg>
