<!-- Generator: Adobe Illustrator 21.1.0, SVG Export Plug-In  -->
<svg version="1.1"
	 xmlns="http://www.w3.org/2000/svg" xmlns:xlink="http://www.w3.org/1999/xlink" xmlns:a="http://ns.adobe.com/AdobeSVGViewerExtensions/3.0/"
	 x="0px" y="0px" width="40px" height="40px" viewBox="0 0 40 40" style="overflow:scroll;enable-background:new 0 0 40 40;"
	 xml:space="preserve">
<style type="text/css">
	.st0{fill:none;stroke:#FFFFFF;stroke-width:2;stroke-linecap:round;stroke-linejoin:round;stroke-miterlimit:10;}
	.st1{fill:#FFFFFF;}
</style>
<defs>
</defs>
<path class="st0" d="M28.4,6.3C34.6,8.8,39,14.9,39,22c0,9.4-7.6,17-17,17c-7.4,0-13.7-4.8-16.1-11.4"/>
<path class="st0" d="M31.6,3.3l-6.6,6C24,9.1,23,9,22,9C14.8,9,9,14.8,9,22c0,0.6,0,1.2,0.1,1.8l-6.6,6C1.5,27.4,1,24.8,1,22
	C1,10.4,10.4,1,22,1C25.5,1,28.7,1.8,31.6,3.3z"/>
<circle class="st0" cx="22" cy="22" r="9"/>
<path class="st0" d="M34.6,25c-0.5,1.9-1.3,3.7-2.5,5.2"/>
<path class="st0" d="M29.2,11.2c3.4,2.3,5.7,6.1,5.8,10.5"/>
<circle class="st0" cx="22" cy="22" r="5"/>
<circle class="st1" cx="22" cy="20" r="1"/>
<ellipse transform="matrix(0.5 -0.866 0.866 0.5 -8.0526 28.0526)" class="st1" cx="20.3" cy="21" rx="1" ry="1"/>
<ellipse transform="matrix(0.866 -0.5 0.5 0.866 -8.7846 13.2154)" class="st1" cx="20.3" cy="23" rx="1" ry="1"/>
<circle class="st1" cx="22" cy="24" r="1"/>
<ellipse transform="matrix(0.5 -0.866 0.866 0.5 -8.0526 32.0526)" class="st1" cx="23.7" cy="23" rx="1" ry="1"/>
<ellipse transform="matrix(0.866 -0.5 0.5 0.866 -7.3205 14.6795)" class="st1" cx="23.7" cy="21" rx="1" ry="1"/>
</svg>
