<!-- Generator: Adobe Illustrator 21.1.0, SVG Export Plug-In  -->
<svg version="1.1"
	 xmlns="http://www.w3.org/2000/svg" xmlns:xlink="http://www.w3.org/1999/xlink" xmlns:a="http://ns.adobe.com/AdobeSVGViewerExtensions/3.0/"
	 x="0px" y="0px" width="46px" height="46px" viewBox="0 0 46 46" style="overflow:scroll;enable-background:new 0 0 46 46;"
	 xml:space="preserve">
<style type="text/css">
	.st0{fill:none;stroke:#FFFFFF;stroke-width:2;stroke-linecap:round;stroke-linejoin:round;stroke-miterlimit:10;}
</style>
<defs>
</defs>
<circle class="st0" cx="23" cy="23" r="22"/>
<circle class="st0" cx="23" cy="23" r="16"/>
<circle class="st0" cx="23" cy="23" r="6"/>
<path class="st0" d="M7.6,18.5c0,0,6.4-4.5,15.4-4.5s15.4,4.5,15.4,4.5"/>
<path class="st0" d="M8,24.5l5.6,2c1.1,0.4,2.2,1,3.1,1.8c1.6,1.5,2.6,3.5,2.8,5.7l0.5,4"/>
<path class="st0" d="M39,24l-5.6,2.5c-1.1,0.4-2.2,1-3.1,1.8c-1.6,1.5-2.6,3.5-2.8,5.7L27,38"/>
</svg>
