<!-- Generator: Adobe Illustrator 21.1.0, SVG Export Plug-In  -->
<svg version="1.1"
	 xmlns="http://www.w3.org/2000/svg" xmlns:xlink="http://www.w3.org/1999/xlink" xmlns:a="http://ns.adobe.com/AdobeSVGViewerExtensions/3.0/"
	 x="0px" y="0px" width="27.5px" height="27.5px" viewBox="0 0 27.5 27.5"
	 style="overflow:scroll;enable-background:new 0 0 27.5 27.5;" xml:space="preserve">
<style type="text/css">
	.st0{fill:#F7F7F7;}
</style>
<defs>
</defs>
<g id="telegram-icon-1_copy">
	<path class="st0" d="M19.4,9.4L10.8,17c-0.1,0.1-0.2,0.2-0.2,0.3l-0.3,2.9c0,0.1-0.1,0.1-0.2,0l-1.4-4.4c-0.1-0.2,0-0.4,0.2-0.5
		L19.1,9C19.4,8.9,19.6,9.2,19.4,9.4z"/>
	<path class="st0" d="M13.7,0C6.1,0,0,6.1,0,13.7s6.1,13.7,13.7,13.7s13.7-6.1,13.7-13.7S21.4,0,13.7,0z M22.9,7.1l-3.1,15.1
		c-0.1,0.7-0.9,1-1.5,0.6l-4.8-3.5L11,21.8c-0.4,0.4-1.1,0.2-1.3-0.3L8,16l-4.7-1.4c-0.7-0.2-0.7-1.1-0.1-1.3L21.7,6
		C22.4,5.8,23.1,6.4,22.9,7.1z"/>
</g>
</svg>
