<!-- Generator: Adobe Illustrator 21.1.0, SVG Export Plug-In  -->
<svg version="1.1"
	 xmlns="http://www.w3.org/2000/svg" xmlns:xlink="http://www.w3.org/1999/xlink" xmlns:a="http://ns.adobe.com/AdobeSVGViewerExtensions/3.0/"
	 x="0px" y="0px" width="25.2px" height="26.1px" viewBox="0 0 25.2 26.1"
	 style="overflow:scroll;enable-background:new 0 0 25.2 26.1;" xml:space="preserve">
<style type="text/css">
	.st0{fill:#F7F7F7;}
</style>
<defs>
</defs>
<g id="viber-icon_copy">
	<path class="st0" d="M24.7,6.3L24.7,6.3c-0.6-2.5-3.4-5.2-5.9-5.7l0,0c-4.1-0.8-8.3-0.8-12.3,0l0,0C4,1.2,1.2,3.8,0.6,6.3l0,0
		c-0.8,3.5-0.8,7,0,10.3l0,0c0.6,2.4,3.1,5,5.6,5.7v2.7c0,1,1.2,1.5,1.9,0.8l2.8-2.9c0.6,0,1.2,0.1,1.8,0.1c2.1,0,4.1-0.2,6.2-0.6
		l0,0c2.5-0.6,5.3-3.2,5.9-5.7l0,0C25.4,13.2,25.4,9.6,24.7,6.3z M18.4,16.3c-0.3,0.8-0.8,1.3-1.5,1.7c-0.2,0.1-0.4,0.2-0.7,0.2
		c0.2-0.1-0.2-0.1-0.1,0c-0.2-0.1-0.4-0.1-0.6-0.2c-2.3-1-4.5-2.2-6.2-4.2c-1-1.1-1.7-2.3-2.4-3.6C6.7,9.6,6.4,8.9,6.2,8.3
		C6,7.8,6.3,7.2,6.7,6.8c0.4-0.4,0.8-0.7,1.3-1c0.4-0.2,0.8-0.1,1,0.2c0.6,0.7,1.1,1.4,1.6,2.2c0.2,0.6,0.1,1.2-0.3,1.5
		C10.1,9.7,10,9.8,9.9,9.9C9.7,10,9.6,10,9.6,10.1c-0.1,0.2-0.1,0.4-0.1,0.7c0.6,1.7,1.6,3,3.3,3.7c0.3,0.1,0.5,0.2,0.9,0.2
		c0.5-0.1,0.7-0.6,1.1-0.9c0.3-0.3,0.8-0.3,1.2-0.1c0.3,0.3,0.7,0.5,1.1,0.8c0.3,0.2,0.7,0.5,1.1,0.8C18.5,15.6,18.6,16,18.4,16.3z
		 M14.6,7.8c-0.3-0.2-0.7-0.3-1.1-0.4c-0.2,0-0.4,0-0.5-0.1c-0.3,0-0.4-0.1-0.4-0.3c0-0.2,0.1-0.3,0.4-0.3c0.7,0,1.4,0.2,2,0.5
		c1.3,0.7,2,1.7,2.2,3.2c0,0.1,0,0.1,0,0.2c0,0.2,0,0.3,0,0.5c0,0,0,0.1,0,0.2c0,0.3-0.5,0.3-0.6,0c0-0.1,0-0.2,0-0.3
		c0-0.7-0.2-1.3-0.5-1.9C15.7,8.4,15.2,8,14.6,7.8z M15.6,10.3c0,0.1,0,0.2,0,0.3c0,0.2-0.1,0.2-0.3,0.3l0,0c-0.3,0-0.4-0.1-0.4-0.4
		c0-0.2,0-0.3-0.1-0.5c0-0.3-0.2-0.6-0.4-0.8C14.2,9.1,14.1,9,14,9c-0.2-0.1-0.4,0-0.6-0.1c-0.2,0-0.3-0.2-0.3-0.4
		c0-0.2,0.2-0.3,0.4-0.3C14.7,8.3,15.5,8.9,15.6,10.3z M18.6,12.1c-0.2,0-0.4-0.2-0.4-0.4c0-0.4-0.1-0.9-0.1-1.3
		c-0.3-2.4-2.2-4.3-4.4-4.7c-0.4,0-0.7-0.1-1.1-0.1c-0.2,0-0.5,0-0.6-0.3C12,5.2,12.1,5,12.4,5h0.2c3.1,0.1,5.6,2.1,6.2,5.2
		c0.1,0.5,0.1,1,0.2,1.6C18.9,11.8,18.8,12.1,18.6,12.1z"/>
	<path class="st0" d="M16.2,18.2L16.2,18.2C16.1,18.1,16.4,18.2,16.2,18.2z"/>
</g>
</svg>
