<!-- Generator: Adobe Illustrator 21.1.0, SVG Export Plug-In  -->
<svg version="1.1"
	 xmlns="http://www.w3.org/2000/svg" xmlns:xlink="http://www.w3.org/1999/xlink" xmlns:a="http://ns.adobe.com/AdobeSVGViewerExtensions/3.0/"
	 x="0px" y="0px" width="23.5px" height="23.5px" viewBox="0 0 23.5 23.5"
	 style="overflow:scroll;enable-background:new 0 0 23.5 23.5;" xml:space="preserve">
<style type="text/css">
	.st0{fill:#F7F7F7;}
</style>
<defs>
</defs>
<g id="skype-icon_copy">
	<path id="Skype_2_" class="st0" d="M22.5,13.4c0.1-0.6,0.1-1.1,0.1-1.7c0-6-4.9-10.9-10.9-10.9c-0.6,0-1.1,0-1.7,0.1
		c-1-0.6-2.2-1-3.5-1C3,0,0,3,0,6.6c0,1.3,0.4,2.5,1,3.5c-0.1,0.6-0.1,1.1-0.1,1.7c0,6,4.9,10.9,10.9,10.9c0.6,0,1.2,0,1.7-0.1
		c1,0.6,2.2,1,3.5,1c3.6,0,6.6-3,6.6-6.6C23.5,15.6,23.1,14.4,22.5,13.4z M16.9,16.7c-0.5,0.6-1.2,1.2-2,1.5c-0.9,0.4-2,0.6-3.2,0.6
		c-1.5,0-2.7-0.3-3.6-0.8c-0.7-0.3-1.2-0.8-1.6-1.5c-0.5-0.6-0.7-1.2-0.7-1.8c0-0.3,0.1-0.6,0.4-0.9c0.3-0.2,0.6-0.4,1-0.4
		c0.3,0,0.6,0.1,0.8,0.3c0.2,0.2,0.4,0.5,0.6,0.8c0.2,0.5,0.4,0.9,0.6,1.2c0.2,0.3,0.5,0.5,0.9,0.7c0.4,0.2,0.9,0.3,1.5,0.3
		c0.9,0,1.6-0.2,2.1-0.6c0.6-0.4,0.8-0.8,0.8-1.4c0-0.4-0.1-0.8-0.4-1.1c-0.3-0.2-0.6-0.4-1.1-0.6c-0.5-0.1-1.1-0.3-1.9-0.5
		c-1.1-0.2-1.9-0.5-2.7-0.8c-0.7-0.3-1.2-0.7-1.7-1.2c-0.4-0.5-0.6-1.2-0.6-2c0-0.8,0.2-1.4,0.7-2C7.3,6,8,5.6,8.8,5.2
		c0.8-0.3,1.8-0.5,3-0.5c0.9,0,1.7,0.1,2.4,0.3c0.6,0.2,1.1,0.5,1.6,0.9c0.4,0.3,0.8,0.7,1,1.1C16.9,7.4,17,7.8,17,8.1
		c0,0.3-0.1,0.7-0.4,0.9c-0.3,0.3-0.6,0.4-1,0.4c-0.3,0-0.6-0.1-0.8-0.2c-0.2-0.2-0.4-0.5-0.6-0.8c-0.3-0.5-0.6-0.9-1-1.2
		c-0.3-0.3-0.9-0.4-1.7-0.4c-0.8,0-1.4,0.1-1.9,0.4C9.2,7.5,9,7.9,9,8.3C9,8.6,9.1,8.8,9.2,9c0.2,0.2,0.4,0.4,0.6,0.5
		c0.4,0.1,0.7,0.2,1,0.3c0.3,0.1,0.8,0.2,1.4,0.4c0.8,0.2,1.6,0.4,2.2,0.6c0.7,0.2,1.2,0.5,1.7,0.8c0.5,0.3,0.9,0.7,1.2,1.2
		c0.2,0.4,0.4,1,0.4,1.7C17.6,15.3,17.3,16,16.9,16.7z"/>
</g>
</svg>
