<!-- Generator: Adobe Illustrator 21.1.0, SVG Export Plug-In  -->
<svg version="1.1"
	 xmlns="http://www.w3.org/2000/svg" xmlns:xlink="http://www.w3.org/1999/xlink" xmlns:a="http://ns.adobe.com/AdobeSVGViewerExtensions/3.0/"
	 x="0px" y="0px" width="179.9px" height="180px" viewBox="0 0 179.9 180"
	 style="overflow:scroll;enable-background:new 0 0 179.9 180;" xml:space="preserve">
<style type="text/css">
	.st0{fill:#FFFFFF;}
</style>
<defs>
</defs>
<path class="st0" d="M89.7,68.4c-6.4,0-11.5-5.4-11.5-12V12c0-6.7,5.1-12,11.5-12s11.6,5.4,11.6,12v44.2c0,6.7-5.5,12.4-11.7,12.4
	L89.7,68.4z M117.1,89.5c-1.8-6.4,1.4-13.3,7.3-15.2l40.4-13.9c6-2.1,12.6,1.3,14.6,7.6c1.8,6.3-1.4,13.1-7.3,15.2l-40.4,13.9
	C125.8,99,119.2,95.6,117.1,89.5z M34.9,177.7c-5-3.8-6.4-11.4-2.5-16.8l24.8-35.2c3.7-5,11-6.7,16.1-2.4c5.1,3.8,6.4,11.4,2.6,16.7
	l-24.8,35.1C47.5,180.3,40.1,181.6,34.9,177.7L34.9,177.7z M145.8,177.7c-5.1,3.8-12.3,2.9-16.1-2.7L105,138.8
	c-3.7-5.7-2.7-13.3,2.7-17.1c5.3-3.8,12.5-2.9,16.3,2.5l25.1,35.7c3.7,5.2,2.7,12.8-2.5,16.8L145.8,177.7z M63,89.2
	c-2,6.1-8.6,9.5-14.6,7.6L8,83.5c-6-1.9-9.4-9-7.5-15.2c1.8-6.4,8.5-9.9,14.6-7.6L55.5,74c6,1.9,9.3,8.8,7.3,15.2
	C62.8,89.2,63,89.2,63,89.2z"/>
</svg>
